<svg 
 xmlns="http://www.w3.org/2000/svg"
 xmlns:xlink="http://www.w3.org/1999/xlink"
 width="420px" height="420px">
<path fill-rule="evenodd"  fill="rgb(24, 24, 24)"
 d="M210.007,0.003 C325.983,0.003 420.001,94.020 420.001,209.996 C420.001,325.972 325.983,419.990 210.007,419.990 C94.031,419.990 0.014,325.972 0.014,209.996 C0.014,94.020 94.031,0.003 210.007,0.003 Z"/>
<path fill-rule="evenodd"  fill="rgb(255, 255, 255)"
 d="M355.541,344.526 C355.864,344.809 356.164,345.185 356.553,345.392 C356.945,345.600 357.580,345.689 357.956,345.918 C358.400,346.187 358.709,346.404 359.078,346.762 C360.814,348.447 362.952,350.477 364.621,352.227 C365.128,352.759 365.061,353.210 365.673,353.805 C366.025,354.146 366.256,354.267 366.550,354.681 C366.750,355.127 367.136,356.023 367.077,356.609 C367.021,357.151 366.645,357.361 366.391,357.777 C365.804,358.738 365.636,359.653 364.796,360.990 C363.987,362.343 363.449,362.546 362.150,362.582 C361.661,362.596 361.238,362.906 360.763,363.094 C360.031,363.381 359.271,363.398 358.574,362.933 C357.649,362.315 356.648,361.797 355.777,361.113 C354.831,360.371 353.990,359.494 353.115,358.665 C351.762,357.382 350.038,355.619 348.599,354.444 C348.276,354.180 348.050,354.348 347.722,354.091 C346.006,352.745 344.580,351.428 342.814,350.146 C342.137,349.654 341.835,349.843 341.825,350.674 C341.811,351.816 341.803,352.959 341.821,354.101 C341.832,354.840 341.820,355.534 341.283,356.152 C341.095,356.368 341.147,356.803 341.109,357.141 C340.939,358.643 341.033,360.217 340.708,361.684 C340.500,362.620 339.549,363.253 338.428,363.274 C336.999,363.301 335.626,363.354 334.211,363.588 C333.407,363.720 332.657,363.724 331.940,363.274 C331.439,362.959 330.913,362.317 330.567,361.795 C329.734,360.542 329.602,359.153 329.395,357.750 C329.320,357.245 329.203,356.715 328.966,356.272 C328.556,355.504 328.735,354.790 328.878,354.006 C329.326,351.568 329.745,349.122 330.073,346.665 C330.641,342.416 330.594,338.136 330.610,333.859 C330.618,331.939 330.751,330.019 330.827,328.099 C330.820,327.624 330.812,327.149 330.805,326.674 C330.741,325.163 330.685,323.651 330.608,322.140 C330.586,321.704 330.580,321.244 330.438,320.841 C329.938,319.427 330.514,318.223 331.081,316.999 C331.353,316.413 331.562,315.796 331.842,315.214 C331.950,314.989 332.151,314.692 332.355,314.650 C333.982,314.313 335.576,313.558 337.283,314.039 C337.872,314.206 338.455,314.531 338.936,314.915 C339.755,315.570 340.582,316.255 341.234,317.066 C341.737,317.691 342.036,318.506 342.322,319.276 C342.697,320.287 343.008,321.327 343.273,322.373 C343.388,322.832 343.364,323.342 343.326,323.822 C343.157,325.935 343.042,328.046 343.574,330.126 C343.763,330.863 344.033,330.919 344.568,330.386 C346.031,328.930 347.545,327.518 348.919,325.980 C349.423,325.415 349.634,324.562 349.901,323.812 C350.352,322.540 351.300,321.731 352.324,320.949 C354.688,319.144 357.208,317.450 359.535,315.597 C360.535,314.800 362.085,314.635 363.006,315.537 C363.450,315.971 363.677,316.364 364.095,316.824 C364.344,317.098 364.791,317.435 365.036,317.713 C365.195,317.892 365.443,318.508 365.498,318.752 C365.113,320.067 365.955,320.954 366.024,321.381 C366.190,322.639 365.867,322.835 365.792,323.789 C365.628,325.892 364.184,327.144 362.688,328.364 C361.478,329.351 360.278,330.355 359.139,331.422 C358.776,331.763 358.647,331.875 358.307,332.247 C357.834,332.766 357.703,333.381 357.430,333.649 C356.500,334.563 355.469,335.181 354.499,336.054 C353.784,336.698 353.394,337.195 352.695,337.855 C352.487,338.051 352.058,338.642 351.993,338.907 C351.773,339.802 351.587,340.546 352.252,341.243 C353.322,342.364 354.378,343.508 355.541,344.526 ZM322.080,344.138 C321.936,347.345 321.109,350.079 319.534,352.961 C319.007,353.911 318.307,354.861 317.347,355.123 C316.666,355.307 316.429,355.610 315.893,356.190 C313.780,358.460 311.014,360.626 308.575,362.231 C307.762,362.763 306.923,363.063 305.988,363.196 C304.731,363.372 303.481,363.495 302.004,363.649 C300.807,363.489 298.392,363.334 297.241,362.905 C295.746,362.348 293.877,361.185 292.764,359.920 C291.404,358.383 290.900,357.514 289.407,355.817 C289.219,355.606 288.556,355.487 288.317,355.346 C286.080,354.039 285.074,351.862 284.600,349.302 C284.144,346.893 283.921,344.512 283.816,342.241 C283.764,341.044 283.728,339.802 283.701,338.590 C283.655,336.582 283.669,334.519 283.815,332.420 C283.922,330.921 284.041,329.393 284.368,327.944 C284.560,327.078 284.984,326.274 285.467,325.514 C286.153,324.428 286.883,323.418 287.866,322.445 C289.335,320.991 291.277,319.661 293.049,318.464 C293.779,317.971 294.351,317.604 295.113,317.301 C296.364,316.806 297.820,316.492 299.146,316.227 C300.294,315.999 301.408,315.713 302.454,315.437 C304.264,314.965 305.424,315.076 306.683,315.798 C308.305,316.745 309.941,317.951 311.900,319.407 C312.281,319.690 312.608,320.051 312.987,320.354 C313.392,320.677 313.757,321.289 314.285,321.675 C314.605,321.904 315.532,322.463 316.053,322.872 C317.516,324.021 318.406,325.107 319.444,326.360 C320.446,327.715 320.834,328.247 321.197,329.250 C321.363,329.718 321.491,330.374 321.556,331.012 C321.797,333.307 321.954,335.680 322.039,338.009 C322.069,338.862 322.079,339.383 322.068,340.169 C322.046,341.333 322.132,343.022 322.080,344.138 ZM310.188,338.817 C310.041,337.049 309.937,336.471 309.604,334.928 C309.571,334.693 309.250,333.273 309.127,333.152 C308.788,332.511 308.494,332.539 308.195,332.154 C307.103,330.781 306.095,329.714 305.009,329.092 C304.338,328.698 303.747,328.369 302.818,328.248 C302.611,328.225 302.342,328.210 302.188,328.265 C301.181,328.613 299.859,329.516 298.618,330.651 C298.047,331.190 298.149,331.029 297.633,331.605 C297.247,332.038 296.730,332.352 296.510,332.742 C296.208,333.202 295.812,334.329 295.763,334.745 C295.596,336.017 295.862,337.134 295.653,338.410 C295.544,339.622 295.424,340.872 295.604,342.166 C295.643,342.556 295.685,342.990 295.679,343.344 C295.665,344.142 295.800,344.846 296.136,345.516 C296.811,346.874 297.610,347.404 298.733,348.356 C299.877,349.110 301.748,349.703 303.209,349.848 C303.871,349.517 304.857,349.031 305.870,348.066 C306.134,347.817 306.414,348.046 306.754,347.917 C307.035,347.812 307.509,347.407 307.715,347.204 C308.565,346.322 309.195,345.683 309.694,345.140 C309.824,344.900 309.907,344.559 309.979,344.186 C309.991,344.161 310.194,342.952 310.242,341.294 C310.265,340.515 310.274,340.119 310.188,338.817 ZM273.976,361.781 C272.607,363.416 270.750,363.401 268.976,363.183 C267.793,363.039 266.812,362.053 266.332,360.933 C265.280,358.482 264.398,355.959 263.410,353.480 C263.243,353.061 262.899,352.713 262.629,352.338 C262.444,352.079 262.186,351.856 262.065,351.572 C261.420,350.068 260.808,348.550 260.186,347.036 C259.841,346.198 259.140,345.862 258.254,346.072 C257.507,346.249 256.756,346.422 255.997,346.540 C254.558,346.764 253.623,347.820 253.593,349.271 C253.549,351.396 253.431,353.521 253.446,355.646 C253.455,356.911 253.721,358.173 253.761,359.439 C253.830,361.588 252.274,363.073 250.097,363.106 C249.543,363.115 248.964,363.255 248.445,363.460 C246.335,364.291 242.798,363.620 241.738,361.003 C241.338,360.015 241.571,358.769 241.516,357.640 C241.547,357.273 241.578,356.905 241.610,356.537 C241.605,356.095 241.600,355.652 241.595,355.210 C241.582,354.365 241.568,353.521 241.555,352.677 C241.554,352.462 241.552,352.246 241.551,352.031 C241.539,351.960 241.526,351.888 241.514,351.816 C241.394,349.675 241.254,347.535 241.161,345.393 C241.113,344.279 241.168,343.160 241.143,342.045 C241.098,340.066 241.056,338.086 240.949,336.109 C240.922,335.610 240.721,335.087 240.481,334.640 C239.677,333.139 239.324,331.546 239.216,329.854 C239.125,328.420 238.872,326.996 238.689,325.568 C238.515,324.201 238.339,322.834 238.166,321.466 C238.155,321.380 238.194,321.282 238.168,321.204 C237.526,319.292 238.682,318.262 240.007,317.233 C241.344,316.195 242.738,315.517 244.480,315.756 C244.935,315.818 245.411,315.731 245.877,315.713 C246.115,315.713 246.352,315.713 246.590,315.713 C248.243,315.792 249.905,315.785 251.546,315.975 C253.005,316.144 254.518,316.047 255.897,316.805 C256.417,317.091 257.104,317.114 257.722,317.174 C259.814,317.376 261.921,317.466 263.999,317.763 C264.647,317.856 265.241,318.440 265.826,318.847 C267.171,319.784 268.466,320.762 269.357,322.203 C270.360,323.825 271.577,325.324 272.470,327.000 C273.100,328.185 273.347,329.575 273.760,330.874 C273.785,330.954 273.776,331.052 273.760,331.136 C273.493,332.530 273.023,333.920 272.998,335.317 C272.959,337.399 271.828,338.854 270.602,340.255 C269.838,341.128 269.829,341.973 270.341,342.799 C271.269,344.295 272.368,345.684 273.335,347.157 C274.449,348.853 275.512,350.582 276.567,352.316 C277.018,353.056 277.403,353.836 277.799,354.608 C278.760,356.481 277.991,358.696 276.174,359.789 C275.341,360.291 274.607,361.027 273.976,361.781 ZM259.388,326.814 C258.235,326.241 257.245,325.671 256.056,325.937 C255.638,326.031 255.248,326.377 254.828,326.463 C254.330,326.566 253.537,326.478 253.027,326.490 C252.044,326.375 251.554,326.398 251.145,326.463 C250.968,326.810 250.585,327.608 250.640,328.493 C250.763,330.463 251.094,332.421 251.372,334.378 C251.523,335.444 252.654,336.192 253.787,335.833 C255.230,335.377 256.745,335.151 258.208,334.749 C258.789,334.590 259.392,334.318 259.849,333.934 C261.002,332.969 261.171,331.643 261.176,330.192 C261.180,328.652 260.735,327.540 259.388,326.814 ZM229.639,362.752 C229.041,362.916 228.417,363.188 227.947,363.582 C226.615,364.699 224.357,365.169 222.866,364.287 C222.165,363.872 221.587,363.061 221.229,362.299 C220.852,361.495 220.849,360.521 220.597,359.647 C220.392,358.938 220.411,358.146 219.594,357.649 C219.206,357.414 219.028,356.720 218.894,356.197 C218.499,354.652 218.164,353.090 217.826,351.530 C217.686,350.883 216.324,349.706 215.648,349.728 C212.430,349.835 209.212,349.951 205.994,350.071 C205.272,350.097 204.349,350.808 204.143,351.511 C203.783,352.734 203.599,353.101 203.264,354.330 C203.219,354.495 203.048,355.568 203.089,355.733 C203.189,356.135 203.244,357.390 203.254,357.778 C203.300,359.630 202.456,360.458 202.078,362.247 C201.748,363.814 200.623,364.039 199.425,364.320 C199.358,364.359 199.292,364.398 199.226,364.437 C197.766,364.432 196.306,364.428 194.846,364.424 C194.728,364.430 194.610,364.437 194.491,364.444 C192.666,364.507 191.138,364.017 190.335,362.189 C190.243,361.980 190.116,361.759 190.113,361.542 C190.086,359.451 190.160,357.378 190.529,355.300 C191.299,350.960 192.972,346.901 194.221,342.710 C194.645,341.534 195.135,340.314 195.372,339.082 C195.540,338.204 195.483,337.295 195.617,336.508 C195.895,334.998 196.578,333.180 196.978,331.333 C197.564,329.215 198.117,327.087 198.744,324.981 C199.205,323.431 199.672,321.872 200.309,320.391 C200.693,319.499 201.424,318.760 201.968,317.933 C202.771,316.714 203.974,317.024 205.117,317.054 C206.766,317.096 208.897,317.574 210.455,317.700 C211.380,317.775 211.614,317.138 212.034,316.999 C212.935,316.645 215.325,317.051 217.295,317.174 C218.814,317.269 219.474,317.553 220.101,318.576 C220.634,319.445 220.854,320.082 221.208,321.046 C222.039,323.315 222.875,325.586 223.600,327.890 C224.487,330.712 225.280,333.564 226.081,336.413 C226.682,338.551 227.483,340.556 228.834,342.375 C229.560,343.352 229.888,344.641 230.331,345.814 C231.892,349.954 233.426,354.104 234.967,358.251 C235.594,359.939 234.789,361.531 232.994,362.020 C231.891,362.321 230.741,362.448 229.639,362.752 ZM214.081,336.925 C213.425,334.870 212.770,332.814 212.058,330.779 C211.951,330.472 211.553,330.085 211.268,330.066 C210.836,330.036 210.296,329.981 210.041,330.651 C209.132,333.038 208.149,335.397 207.206,337.772 C207.136,337.948 207.111,338.179 207.157,338.360 C207.291,338.876 207.709,339.648 208.363,340.073 C208.749,340.324 209.408,340.230 209.753,340.309 C210.365,340.281 210.827,340.208 211.332,339.959 C211.921,339.668 212.367,339.432 212.910,339.258 C214.170,339.211 214.486,338.249 214.081,336.925 ZM190.082,324.860 C189.757,325.693 189.569,326.469 189.058,327.164 C188.628,327.750 187.895,328.268 187.400,328.827 C186.623,329.702 186.167,331.293 185.725,332.422 C183.917,337.040 182.202,341.325 180.435,345.958 C179.464,348.503 178.537,351.065 177.559,353.608 C176.591,356.123 175.494,358.593 174.627,361.142 C174.084,362.737 173.038,363.183 171.532,363.271 C168.278,363.461 165.031,363.775 161.777,363.960 C159.761,364.075 159.180,363.581 158.555,361.637 C157.773,359.201 156.891,356.794 156.216,354.329 C155.710,353.113 156.044,351.616 155.909,350.299 C155.849,349.818 155.642,349.408 155.444,348.980 C153.652,345.115 152.064,341.178 150.759,337.115 C149.765,334.022 148.549,331.002 147.447,327.944 C147.251,327.402 147.152,326.826 146.970,326.279 C146.634,325.272 146.273,324.296 145.413,323.557 C145.103,323.290 144.925,322.742 144.888,322.305 C144.744,320.578 145.278,318.978 146.212,317.575 C146.773,316.734 147.815,316.775 148.765,316.832 C150.037,316.908 151.310,316.979 152.584,317.007 C153.956,317.037 155.331,317.056 156.702,316.1000 C157.564,316.965 158.130,317.314 158.612,317.983 C159.702,319.495 160.359,321.139 160.777,322.982 C161.299,325.286 162.147,327.525 162.967,329.750 C163.619,331.518 164.415,333.236 165.192,334.955 C165.962,336.659 166.785,338.338 167.591,340.025 C167.812,340.487 168.040,340.965 168.757,340.673 C169.662,338.228 170.565,335.796 171.459,333.361 C171.656,332.825 171.871,332.439 172.045,331.896 C172.247,331.266 172.457,330.644 172.747,330.144 C173.035,329.645 173.640,329.667 173.799,329.092 C174.356,327.941 174.579,326.564 175.219,325.305 C175.548,324.520 175.855,323.723 176.212,322.951 C177.265,320.680 179.384,319.518 181.327,318.230 C181.863,317.876 182.800,318.001 183.529,318.093 C185.769,318.377 187.995,318.767 190.232,319.083 C191.236,319.225 191.857,320.418 191.420,321.730 C191.063,322.803 190.493,323.802 190.082,324.860 ZM140.140,360.538 C139.998,361.803 138.956,362.781 137.481,362.896 C136.182,362.997 134.877,363.096 133.577,363.067 C131.873,363.155 130.896,362.914 129.707,362.737 C129.285,362.708 128.847,362.782 128.427,362.866 C125.335,363.487 122.307,364.400 119.086,364.362 C117.578,364.344 116.386,363.655 115.060,363.231 C113.448,362.715 112.250,361.707 111.547,360.172 C111.279,359.586 111.068,358.925 111.037,358.288 C110.922,355.931 110.918,353.569 110.823,351.210 C110.754,349.503 110.644,347.795 110.475,346.096 C110.408,345.423 110.132,344.772 109.951,344.111 C109.928,344.049 109.904,343.987 109.880,343.924 C109.838,342.972 109.771,342.019 109.758,341.066 C109.729,338.859 109.727,336.652 109.713,334.445 C109.711,334.135 109.708,333.825 109.706,333.515 C109.708,332.894 109.711,332.273 109.713,331.651 C109.737,329.941 109.779,328.231 109.779,326.520 C109.779,325.569 109.708,324.618 109.669,323.667 C109.668,323.450 109.667,323.233 109.666,323.016 C109.665,322.706 109.665,322.396 109.664,322.086 C109.668,321.928 109.673,321.770 109.677,321.613 C109.703,321.478 109.729,321.343 109.755,321.209 C109.823,320.341 110.177,319.837 110.659,319.453 C111.356,318.897 112.001,318.525 112.939,318.226 C113.931,317.909 115.299,317.797 116.272,317.875 C118.092,318.021 119.715,317.891 121.533,318.051 C122.707,318.153 123.888,317.814 124.866,317.525 C125.925,317.153 126.373,317.016 127.672,316.824 C128.410,316.715 130.439,316.742 131.180,316.648 C133.046,316.414 134.508,317.119 136.167,317.719 C136.271,317.757 136.356,317.850 136.460,317.888 C138.271,318.546 138.785,319.206 138.698,321.109 C138.644,322.281 138.648,323.573 138.371,324.711 C138.091,325.857 136.928,326.510 135.740,326.463 C134.075,326.398 132.510,325.951 130.855,326.017 C129.849,326.057 128.853,326.216 127.847,326.288 C126.093,326.414 124.331,326.486 122.591,326.722 C121.719,326.836 120.792,327.610 120.662,329.038 C120.593,329.991 120.479,330.946 120.506,331.896 C120.529,332.688 120.596,333.533 120.904,334.240 C121.063,334.604 121.793,334.923 122.259,334.915 C125.711,334.862 129.166,334.792 132.610,334.582 C134.734,334.453 136.486,336.284 136.082,338.433 C135.949,339.140 135.960,339.894 135.720,340.559 C135.587,340.926 135.465,341.465 135.214,342.062 C134.935,342.722 134.662,343.001 134.337,343.639 C133.941,344.416 133.218,344.613 132.379,344.628 C130.984,344.653 131.172,344.654 129.777,344.691 C129.718,344.709 128.607,344.672 128.549,344.691 C127.889,344.807 127.736,345.190 126.795,345.217 C125.322,345.317 123.083,345.230 121.611,345.341 C120.938,345.391 120.427,345.697 120.475,346.553 C120.568,348.237 120.607,349.923 120.658,351.609 C120.684,352.487 121.370,352.874 121.1000,352.994 C122.732,353.133 123.533,352.944 124.300,352.860 C125.069,352.775 125.832,352.640 126.598,352.533 C128.214,352.308 129.825,351.999 131.449,351.885 C133.554,351.737 135.682,351.202 137.769,352.113 C138.414,352.394 139.156,352.442 139.821,352.686 C140.714,353.012 141.123,354.094 141.001,355.031 C140.742,357.025 140.365,358.541 140.140,360.538 ZM101.050,329.329 C100.918,330.139 100.786,330.950 100.654,331.760 C100.622,331.826 100.589,331.892 100.556,331.958 C100.525,332.070 100.494,332.182 100.462,332.295 C100.455,332.366 100.448,332.438 100.441,332.509 C100.436,341.181 100.432,349.854 100.424,358.526 C100.424,359.112 100.421,359.699 100.377,360.282 C100.294,361.367 99.820,362.182 98.731,362.541 C96.063,363.422 93.397,364.309 90.727,365.185 C89.788,365.494 88.859,365.885 87.894,366.053 C85.456,366.480 83.430,365.179 81.329,364.275 C81.046,364.154 80.877,363.685 80.729,363.344 C79.754,361.096 78.823,358.827 77.824,356.589 C77.494,355.849 77.143,355.024 76.563,354.508 C74.337,352.531 73.088,349.921 71.709,347.385 C70.789,345.694 69.883,343.996 68.957,342.308 C68.847,342.109 68.684,341.895 68.491,341.798 C68.280,341.692 67.978,341.637 67.768,341.710 C67.634,341.757 67.523,342.080 67.527,342.277 C67.567,344.286 67.650,346.295 67.678,348.305 C67.685,348.782 67.642,349.316 67.435,349.730 C66.723,351.154 66.975,352.601 67.144,354.074 C67.365,355.984 67.118,357.787 65.955,359.433 C65.197,360.506 64.662,361.736 63.981,362.866 C63.412,363.811 61.960,364.399 60.925,364.099 C58.877,363.504 56.857,362.806 54.798,362.257 C52.871,361.744 52.505,360.169 52.924,358.447 C53.024,358.034 53.166,357.628 53.327,357.235 C53.953,355.710 54.063,354.125 54.042,352.492 C54.032,351.750 54.369,351.006 54.517,350.257 C54.661,349.533 54.863,348.801 54.865,348.072 C54.871,346.414 54.763,344.756 54.714,343.098 C54.649,340.883 54.586,338.668 54.541,336.453 C54.515,335.193 54.526,333.931 54.520,332.670 C54.512,332.603 54.503,332.535 54.495,332.468 C54.507,330.951 54.519,329.434 54.531,327.917 C54.544,327.097 54.558,326.278 54.571,325.458 C54.564,325.280 54.556,325.102 54.549,324.925 C54.514,324.800 54.480,324.675 54.445,324.551 C54.362,324.435 54.280,324.318 54.198,324.202 C54.150,324.144 54.102,324.086 54.055,324.028 C53.532,323.423 52.888,322.901 52.494,322.207 C52.136,321.575 52.130,319.648 52.606,319.102 C52.939,318.720 53.518,318.506 54.009,318.401 C55.625,318.055 56.983,317.651 58.569,317.174 C58.862,317.086 59.459,316.577 59.674,316.353 C60.458,315.533 61.321,315.286 62.252,315.071 C63.284,314.833 64.397,314.685 65.535,314.919 C65.879,314.989 66.241,315.315 66.456,315.621 C69.288,319.642 72.122,323.661 74.885,327.729 C75.464,328.582 75.662,329.687 76.203,330.574 C77.408,332.554 78.717,334.471 79.988,336.411 C80.855,337.734 81.725,339.055 82.602,340.371 C82.952,340.898 83.299,341.430 83.693,341.923 C84.118,342.454 85.554,342.164 85.737,341.508 C85.858,341.072 85.902,340.607 85.927,340.152 C86.056,337.749 86.222,335.347 86.261,332.942 C86.277,331.930 86.008,330.913 85.878,329.897 C85.838,329.590 85.831,329.279 85.809,328.970 C85.819,328.853 85.830,328.736 85.840,328.620 C85.788,326.457 85.731,324.294 85.688,322.131 C85.669,321.137 85.678,320.143 85.674,319.149 C85.653,319.072 85.631,318.996 85.609,318.919 C85.363,317.711 86.007,316.740 86.534,315.780 C86.893,315.127 87.473,314.589 87.986,314.029 C88.523,313.444 90.241,313.207 91.079,313.642 C93.887,315.100 96.713,316.528 99.456,318.101 C100.411,318.649 101.105,319.492 101.047,320.880 C100.933,323.626 101.058,326.383 101.084,329.135 C101.073,329.200 101.061,329.264 101.050,329.329 Z"/>
<path fill-rule="evenodd"  fill="rgb(255, 255, 255)"
 d="M319.915,191.273 C312.018,207.356 303.267,223.017 294.889,238.862 C290.978,246.258 287.250,253.758 283.128,261.033 C277.113,271.650 268.196,278.592 255.1000,280.469 C250.101,281.376 244.070,281.504 238.090,281.772 C226.879,282.276 215.661,282.648 204.444,283.031 C197.398,283.272 190.348,283.401 183.302,283.643 C179.440,283.776 175.583,284.199 171.722,284.217 C158.408,284.279 147.922,278.417 140.223,267.876 C135.167,260.952 130.929,253.427 126.351,246.154 C117.516,232.115 108.700,218.066 99.876,204.020 C95.243,196.646 91.301,189.042 91.920,180.383 C91.608,172.783 93.753,166.278 97.043,160.057 C108.334,138.708 119.727,117.412 130.828,95.965 C136.062,85.853 143.464,78.398 154.215,74.544 C156.763,73.630 159.477,72.926 162.162,72.702 C167.646,72.244 173.162,72.143 178.667,71.958 C191.218,71.534 203.771,71.159 216.323,70.741 C221.519,70.568 226.715,70.353 231.910,70.123 C235.874,69.947 239.845,69.434 243.797,69.561 C257.606,70.005 269.007,75.393 276.621,87.226 C286.428,102.469 295.854,117.957 305.477,133.319 C309.281,139.391 313.185,145.399 317.022,151.451 C325.107,164.203 326.572,177.715 319.915,191.273 ZM270.911,143.452 C259.624,122.335 242.336,109.431 218.564,105.333 C206.006,103.168 193.739,103.704 181.755,108.004 C163.354,114.608 149.452,126.492 140.605,144.088 C134.008,157.208 131.683,171.113 133.952,185.592 C135.924,198.178 141.021,209.626 149.236,219.332 C163.768,236.502 182.382,245.528 206.099,246.088 C208.244,245.884 211.481,245.576 214.719,245.265 C227.085,244.077 238.141,239.575 248.300,232.442 C266.388,219.742 276.194,202.215 278.213,180.433 C279.409,167.531 277.071,154.975 270.911,143.452 ZM218.755,192.754 C212.673,187.405 209.201,179.388 209.162,170.463 C209.128,162.897 211.460,156.207 216.746,150.720 C224.007,143.182 234.623,143.408 242.098,149.826 C247.705,154.638 250.334,160.900 251.233,168.212 C252.197,176.044 250.841,183.091 246.196,189.523 C240.067,198.010 228.203,201.062 218.755,192.754 ZM164.738,194.820 C158.603,193.327 155.359,188.609 153.683,182.803 C153.103,180.794 153.060,178.628 152.771,176.534 C152.714,170.184 155.024,164.724 158.867,159.938 C162.560,155.341 167.317,152.274 173.453,153.250 C180.278,154.336 184.018,159.015 185.436,165.532 C187.478,174.911 185.461,183.309 178.621,190.228 C174.823,194.070 170.094,196.123 164.738,194.820 Z"/>
<path fill-rule="evenodd"  fill="rgb(240, 68, 49)"
 d="M383.635,145.225 C382.896,147.402 381.265,150.145 378.743,153.453 C377.960,154.586 377.002,155.719 375.872,156.849 C374.740,157.980 373.435,159.113 371.957,160.246 C370.998,160.942 369.911,161.552 368.693,162.075 C367.474,162.598 366.082,162.945 364.516,163.122 C361.990,163.384 359.554,162.818 357.203,161.428 C355.983,160.731 354.938,159.948 354.069,159.079 C353.197,158.208 352.413,157.297 351.717,156.338 C350.846,155.121 350.104,153.903 349.496,152.683 C348.885,151.466 348.320,150.203 347.797,148.898 C346.575,145.853 345.574,142.742 344.789,139.564 C344.005,136.388 343.350,133.059 342.826,129.577 C342.650,128.359 342.499,127.141 342.368,125.921 C342.237,124.703 342.083,123.485 341.909,122.265 C341.647,119.569 341.470,116.912 341.383,114.301 C341.294,111.690 341.205,109.124 341.118,106.598 C341.116,102.420 341.223,98.395 341.439,94.521 C341.654,90.648 341.978,86.927 342.413,83.357 C343.279,75.610 344.581,68.951 346.321,63.379 C347.188,60.420 348.146,57.894 349.190,55.805 C350.058,53.976 350.863,52.670 351.603,51.887 C352.341,51.103 352.886,50.799 353.235,50.972 C353.582,51.147 353.692,51.755 353.562,52.800 C353.432,53.844 353.237,55.238 352.977,56.978 C352.802,58.198 352.651,59.351 352.521,60.438 C352.391,61.528 352.239,62.899 352.066,64.551 C351.806,67.338 351.589,70.253 351.417,73.299 C351.243,76.347 351.114,79.915 351.031,84.006 C350.857,87.400 350.793,90.948 350.840,94.647 C350.884,98.348 350.994,102.285 351.172,106.463 C351.259,108.813 351.370,111.251 351.502,113.774 C351.633,116.300 351.830,118.823 352.093,121.347 C352.267,122.567 352.398,123.719 352.486,124.807 C352.572,125.896 352.703,127.048 352.879,128.266 C353.315,131.487 353.817,134.533 354.385,137.405 C354.951,140.277 355.714,143.019 356.674,145.630 C357.021,146.674 357.393,147.675 357.785,148.632 C358.177,149.591 358.634,150.460 359.157,151.243 C360.115,152.809 360.986,153.853 361.770,154.375 C362.553,154.897 363.337,155.203 364.120,155.288 C365.165,155.375 366.513,154.983 368.167,154.111 C369.385,153.588 370.517,152.914 371.561,152.086 C372.605,151.259 373.604,150.453 374.563,149.669 C377.434,147.144 379.630,145.076 381.154,143.464 C382.675,141.854 383.699,141.266 384.221,141.700 C384.568,141.875 384.373,143.050 383.635,145.225 ZM336.511,82.446 C335.816,87.669 335.080,92.849 334.299,97.984 C333.518,103.121 332.822,107.908 332.216,112.347 C331.261,119.920 330.396,127.428 329.616,134.871 C328.836,142.313 328.099,149.821 327.407,157.394 C327.319,158.351 327.232,159.657 327.147,161.311 C327.060,162.964 326.931,164.683 326.758,166.469 C326.583,168.252 326.368,169.949 326.108,171.561 C325.847,173.171 325.587,174.411 325.326,175.282 C325.238,175.456 325.130,175.652 324.1000,175.870 C324.869,176.086 324.716,176.197 324.543,176.197 C323.933,176.197 323.367,175.304 322.844,173.521 C322.321,171.736 321.884,169.735 321.536,167.516 C321.186,165.296 320.901,163.185 320.684,161.184 C320.465,159.180 320.311,157.920 320.226,157.397 C319.962,152.958 319.830,148.564 319.828,144.211 C319.822,131.764 320.730,119.338 322.552,106.933 C324.374,94.529 326.804,82.277 329.847,70.176 C325.933,77.142 321.778,83.868 317.387,90.354 C312.994,96.841 308.580,103.349 304.144,109.879 C298.483,105.792 292.410,102.335 285.925,99.508 C279.439,96.683 273.062,93.749 266.793,90.704 C267.752,94.535 268.603,99.235 269.346,104.804 C270.087,110.375 270.722,116.142 271.247,122.102 C271.772,128.065 272.167,133.898 272.431,139.598 C272.694,145.299 272.827,150.153 272.829,154.155 C272.829,154.331 272.829,154.808 272.830,155.592 C272.830,156.375 272.786,157.181 272.700,158.007 C272.613,158.833 272.483,159.574 272.310,160.227 C272.134,160.880 271.873,161.206 271.527,161.206 C270.917,161.207 270.286,160.750 269.633,159.836 C268.980,158.923 268.392,157.879 267.869,156.704 C267.346,155.529 266.888,154.354 266.496,153.179 C266.104,152.004 265.863,151.201 265.777,150.764 C263.685,144.151 262.245,137.013 261.458,129.353 C260.671,121.695 260.276,114.384 260.273,107.419 C260.273,106.375 260.292,104.657 260.336,102.262 C260.378,99.869 260.507,97.388 260.724,94.819 C260.939,92.253 261.287,89.903 261.765,87.768 C262.242,85.636 262.959,84.308 263.918,83.785 C267.313,84.742 270.751,85.871 274.234,87.175 C277.715,88.479 281.155,89.936 284.551,91.544 C287.946,93.154 291.211,94.936 294.346,96.893 C297.480,98.850 300.353,101.003 302.966,103.352 C303.488,102.395 304.639,100.328 306.423,97.148 C308.204,93.971 310.292,90.314 312.685,86.178 C315.076,82.044 317.642,77.711 320.382,73.183 C323.122,68.657 325.709,64.498 328.145,60.711 C330.579,56.923 332.689,53.789 334.473,51.307 C336.255,48.825 337.452,47.585 338.062,47.584 C338.323,47.584 338.519,47.825 338.650,48.302 C338.780,48.781 338.889,49.326 338.977,49.934 C339.063,50.544 339.108,51.131 339.108,51.697 C339.108,52.264 339.109,52.590 339.109,52.676 C339.111,57.115 338.852,61.881 338.332,66.973 C337.812,72.065 337.204,77.223 336.511,82.446 Z"/>
</svg>